<svg xmlns="http://www.w3.org/2000/svg" width="256" height="256"><g fill="none" stroke="#f3423c" stroke-linecap="round" stroke-linejoin="round"><path d="M194.71 5.333h32v32" stroke-width="10.66667"/><path d="m29.376 80 46.005-32.203a10.667 10.667 0 0 1 13.654 1.195l3.285 3.285a10.667 10.667 0 0 0 13.739 1.142l23.466-16.726a10.667 10.667 0 0 1 12.854.342l13.866 11.136a10.667 10.667 0 0 0 13.067.202l57.397-43.04M34.56 144.15 125.376 208l90.667-64" stroke-width="10.66667"/><path d="M88.043 181.75v-32.417A5.333 5.333 0 0 0 82.709 144h-16a5.333 5.333 0 0 0-5.333 5.333v13.547M141.376 196.704V128a5.333 5.333 0 0 0-5.333-5.333h-21.334a5.333 5.333 0 0 0-5.333 5.333v68.747M162.71 106.667v74.976M194.71 128v31.061" stroke-width="10.66667"/><path d="M216.043 144v96a10.667 10.667 0 0 1-10.667 10.667h-160A10.667 10.667 0 0 1 34.709 240v-96l85.334-58.667a8.213 8.213 0 0 1 10.666 0l32 21.334V96a5.333 5.333 0 0 1 5.334-5.333h21.333A5.333 5.333 0 0 1 194.709 96v32Z" stroke-width="10.66667"/></g></svg>